<?xml version="1.0"?>
<svg xmlns="http://www.w3.org/2000/svg" width="512" height="512" viewBox="0 0 512 512"><g><path d="M344,8H168a40.04,40.04,0,0,0-40,40V464a40.04,40.04,0,0,0,40,40H344a40.04,40.04,0,0,0,40-40V48A40.04,40.04,0,0,0,344,8ZM293.75,24l-4,16h-67.5l-4-16ZM368,464a24.032,24.032,0,0,1-24,24H168a24.032,24.032,0,0,1-24-24V48a24.032,24.032,0,0,1,24-24h33.75l6.49,25.94A8,8,0,0,0,216,56h80a8,8,0,0,0,7.76-6.06L310.25,24H344a24.032,24.032,0,0,1,24,24Z"/><path d="M224,456H168a8,8,0,0,0,0,16h56a8,8,0,0,0,0-16Z"/><path d="M255,456h-8a8,8,0,0,0,0,16h8a8,8,0,0,0,0-16Z"/><path d="M344,304H320V249.869A23.941,23.941,0,0,0,328,232V208c0-.047-.006-.093-.007-.14,0-.105-.01-.209-.016-.313-.012-.208-.03-.414-.057-.618-.013-.1-.028-.194-.044-.291-.04-.231-.09-.457-.149-.68-.018-.068-.033-.136-.052-.2a7.757,7.757,0,0,0-.323-.908l-16.989-39.976A8,8,0,0,0,303,160H209a8,8,0,0,0-7.363,4.871l-16.989,39.976a7.757,7.757,0,0,0-.323.908c-.019.067-.034.135-.052.2-.059.223-.109.449-.149.68-.016.1-.031.194-.044.291-.027.2-.045.41-.057.618-.006.1-.014.208-.016.313,0,.047-.007.093-.007.14v24a23.941,23.941,0,0,0,8,17.869V304H168a8,8,0,0,0,0,16H344a8,8,0,0,0,0-16Zm-64-72a8,8,0,0,1-16,0V216h16Zm-32,0a8,8,0,0,1-16,0V216h16Zm-32,0a8,8,0,0,1-16,0V216h16Zm80-16h16v16a8,8,0,0,1-16,0Zm-81.708-40h83.416l10.2,24H204.092ZM248,304V280h16v24Zm32,0V272a8,8,0,0,0-8-8H240a8,8,0,0,0-8,8v32H208V256a23.9,23.9,0,0,0,16-6.131,23.943,23.943,0,0,0,32,0,23.943,23.943,0,0,0,32,0A23.9,23.9,0,0,0,304,256v48Z"/></g></svg>
