<?xml version="1.0"?>
<svg xmlns="http://www.w3.org/2000/svg" width="512" height="512" viewBox="0 0 128 128"><g><path d="M109.255,100.721H94.5c0-.067-.008-.132-.008-.2v-75.5a10.44,10.44,0,0,0-9.748-10.4c-.112-.023-56.8-.035-56.8-.035A10.958,10.958,0,0,0,17,25.529a1.75,1.75,0,0,0,1.75,1.75H33.513v75.7a10.448,10.448,0,0,0,10.435,10.436h56.111a10.958,10.958,0,0,0,10.946-10.946A1.75,1.75,0,0,0,109.255,100.721ZM27.941,18.083h48.44a10.916,10.916,0,0,0-2.786,5.7H20.7A7.459,7.459,0,0,1,27.941,18.083Zm16.007,91.834a6.943,6.943,0,0,1-6.935-6.936v-75.7H75.207a1.75,1.75,0,0,0,1.75-1.75v-.038a7.44,7.44,0,0,1,7.266-7.4,6.938,6.938,0,0,1,6.764,6.927v75.5a13.862,13.862,0,0,0,.175,2.106,1.63,1.63,0,0,0,.035.244,13.873,13.873,0,0,0,3.446,7.045Zm56.472-.016a10.38,10.38,0,0,1-5.253-5.68H107.3A7.454,7.454,0,0,1,100.42,109.9Z"/><path d="M64,68.476A16.417,16.417,0,1,0,47.583,52.059,16.436,16.436,0,0,0,64,68.476Zm0-29.333A12.917,12.917,0,1,1,51.083,52.059,12.931,12.931,0,0,1,64,39.143Z"/><path d="M56.842,59.259A1.75,1.75,0,0,0,59.381,61.1L64,58.676,68.619,61.1a1.75,1.75,0,0,0,2.539-1.845l-.882-5.143,3.737-3.643a1.75,1.75,0,0,0-.971-2.985l-5.163-.751-2.31-4.678a1.749,1.749,0,0,0-3.138,0l-2.31,4.678-5.163.751a1.75,1.75,0,0,0-.971,2.985l3.737,3.643Zm4.693-9.191a1.747,1.747,0,0,0,1.318-.957L64,46.787l1.147,2.324a1.747,1.747,0,0,0,1.318.957l2.566.373-1.857,1.811a1.749,1.749,0,0,0-.5,1.549l.438,2.554-2.3-1.206a1.749,1.749,0,0,0-1.628,0l-2.3,1.206.438-2.554a1.749,1.749,0,0,0-.5-1.549l-1.857-1.811Z"/><path d="M82.583,73.524H45.417a1.75,1.75,0,0,0,0,3.5H82.583a1.75,1.75,0,0,0,0-3.5Z"/><path d="M82.583,81.191H45.417a1.75,1.75,0,0,0,0,3.5H82.583a1.75,1.75,0,0,0,0-3.5Z"/><path d="M82.583,88.857H45.417a1.75,1.75,0,0,0,0,3.5H82.583a1.75,1.75,0,0,0,0-3.5Z"/></g></svg>
