<svg height="480pt" viewBox="0 0 480 480.0122" width="480pt" xmlns="http://www.w3.org/2000/svg"><path d="m328.007812 416.011719h-24v-144h24c4.417969 0 8-3.582031 8-8v-48c0-4.417969-3.582031-8-8-8h-72v-24c-.027343-22.078125-17.921874-39.972657-40-40h-24v-21.480469c19.515626-9.257812 31.96875-28.917969 32-50.519531v-40c0-17.945313-17.601562-32.0000002-40-32.0000002-5.449218-.00781255-10.855468.9023432-16 2.6875002-5.144531-1.785157-10.554687-2.69531275-16-2.6875002-22.402343 0-40 14.0546872-40 32.0000002v40c.027344 21.601562 12.480469 41.261719 32 50.519531v21.480469h-24c-22.082031.027343-39.976562 17.921875-40 40v24h-64v-72c0-4.417969 3.578126-8 8-8h9.46875c3.378907 9.554687 12.394532 15.957031 22.53125 16h16c13.253907 0 24-10.746094 24-24 0-13.253907-10.746093-24-24-24h-16c-10.136718.042969-19.152343 6.445312-22.53125 16h-9.46875c-13.257812 0-23.9999995 10.746093-23.9999995 24v128c0 4.417969 3.5781255 8 7.9999995 8h24v144h-24c-4.421874 0-7.9999995 3.582031-7.9999995 8v48c0 4.417969 3.5781255 8 7.9999995 8h320c4.417969 0 8-3.582031 8-8v-48c0-4.417969-3.582031-8-8-8zm-272-304h16c4.417969 0 8 3.582031 8 8s-3.582031 8-8 8h-16c-4.421874 0-8-3.582031-8-8s3.578126-8 8-8zm96-96c4.398438-.027344 8.757813.859375 12.796876 2.601562.953124.414063 1.976562.640625 3.015624.671875h.265626c1.308593-.046875 2.597656-.367187 3.777343-.9375 3.859375-1.554687 7.980469-2.347656 12.144531-2.335937 13.007813 0 24 7.328125 24 16s-10.992187 16-24 16c-4.160156.015625-8.28125-.777344-12.136718-2.328125-1.164063-.625-2.464844-.953125-3.785156-.953125h-.160157c-1.105469.019531-2.195312.261719-3.199219.722656-4.019531 1.710937-8.351562 2.582031-12.71875 2.558594-13.007812 0-24-7.328125-24-16s10.992188-16 24-16zm-24 56v-14.398438c7.277344 4.253907 15.566407 6.464844 24 6.398438 5.445313.007812 10.855469-.898438 16-2.6875 5.144532 1.789062 10.550782 2.695312 16 2.6875 8.429688.066406 16.71875-2.144531 24-6.398438v14.398438c0 22.09375-17.910156 40-40 40-22.09375 0-40-17.90625-40-40zm32 55.359375c5.296876.855468 10.699219.855468 16 0v16.640625h-16zm-64 56.640625c0-13.253907 10.742188-24 24-24h96c13.253907 0 24 10.746093 24 24v24h-144zm-80 40h304v32h-304zm32 48h240v144h-240zm272 192h-304v-32h304zm0 0"/><path d="m461 33.765625 3.199219 15.816406 15.648437-3.167969-8-40c-.410156-2.089843-1.640625-3.925781-3.414062-5.097656-1.777344-1.171875-3.945313-1.585937-6.027344-1.144531l-40 8 3.199219 15.679687 24.800781-4.960937c-10.976562 23.777344-30.808594 57.859375-86.023438 85.992187-24.179687 12.277344-50.355468 20.132813-77.296874 23.203126l1.855468 15.886718c28.824219-3.277344 56.832032-11.675781 82.703125-24.800781 53.960938-27.542969 76.699219-60.335937 89.355469-85.40625zm0 0"/><path d="m472.007812 96.011719h-32c-4.421874 0-8 3.582031-8 8v80c0 4.417969 3.578126 8 8 8h32c4.417969 0 8-3.582031 8-8v-80c0-4.417969-3.582031-8-8-8zm-8 80h-16v-64h16zm0 0"/><path d="m416.007812 192.011719c4.417969 0 8-3.582031 8-8v-48c0-4.417969-3.582031-8-8-8h-32c-4.421874 0-8 3.582031-8 8v48c0 4.417969 3.578126 8 8 8zm-24-48h16v32h-16zm0 0"/><path d="m360.007812 144.011719h-32c-4.421874 0-8 3.582031-8 8v32c0 4.417969 3.578126 8 8 8h32c4.417969 0 8-3.582031 8-8v-32c0-4.417969-3.582031-8-8-8zm-8 32h-16v-16h16zm0 0"/><path d="m336.007812 288.011719h32v16h-32zm0 0"/><path d="m384.007812 288.011719h96v16h-96zm0 0"/><path d="m336.007812 320.011719h32v16h-32zm0 0"/><path d="m384.007812 320.011719h96v16h-96zm0 0"/><path d="m336.007812 352.011719h32v16h-32zm0 0"/><path d="m384.007812 352.011719h96v16h-96zm0 0"/><path d="m336.007812 384.011719h32v16h-32zm0 0"/><path d="m384.007812 384.011719h96v16h-96zm0 0"/></svg>